<svg viewBox="0 0 240 240" xmlns="http://www.w3.org/2000/svg">
  <path d="M232.0,120.0 L176.0,217.0 L64.0,217.0 L8.0,120.0 L64.0,23.0 L176.0,23.0 Z" fill="none" stroke="#34d1a3" stroke-width="16" stroke-linejoin="round" opacity="0.28"/>
  <path d="M232.0,120.0 L176.0,217.0 L64.0,217.0 L8.0,120.0 L64.0,23.0 L176.0,23.0 Z" fill="#161B22" stroke="#34d1a3" stroke-width="5" stroke-linejoin="round"/>
  <path d="M163.9,160.9 L161.6,163.2 L159.3,165.4 L156.8,167.4 L154.2,169.3 L151.5,171.0 L148.8,172.6 L145.9,174.1 L143.0,175.4 L140.0,176.6 L137.0,177.5 L133.9,178.4 L130.8,179.0 L127.6,179.5 L124.4,179.8 L121.2,180.0 L118.0,180.0 L114.8,179.8 L111.6,179.4 L108.5,178.9 L105.4,178.2 L102.3,177.3 L99.3,176.3 L96.3,175.1 L93.4,173.8 L90.6,172.3 L87.8,170.6 L85.2,168.8 L82.6,166.9 L80.2,164.9 L77.8,162.7 L75.6,160.4 L73.5,157.9 L71.6,155.4 L69.7,152.8 L68.1,150.1 L66.5,147.2 L65.2,144.4 L63.9,141.4 L62.9,138.4 L62.0,135.3 L61.3,132.2 L60.7,129.0 L60.3,125.9 L60.1,122.7 L60.0,119.5 L60.1,116.3 L60.4,113.1 L60.9,109.9 L61.5,106.8 L62.3,103.7 L63.2,100.6 L64.3,97.6 L65.6,94.7 L67.0,91.8 L68.6,89.0 L70.3,86.4 L72.2,83.8 L74.2,81.3 L76.3,78.9 L78.6,76.6 L80.9,74.5 L83.4,72.4 L86.0,70.6 L88.7,68.8 L91.5,67.2 L94.3,65.8 L97.3,64.5 L100.2,63.3 L103.3,62.4 L106.4,61.6 L109.5,60.9 L112.7,60.4 L115.9,60.1 L119.1,60.0 L122.3,60.0 L125.5,60.2 L128.6,60.6 L131.8,61.2 L134.9,61.9 L138.0,62.8 L141.0,63.8 L144.0,65.0 L146.9,66.4 L149.7,67.9 L152.4,69.5 L155.1,71.3 L157.6,73.3 L160.1,75.3 L162.4,77.5 L164.6,79.9" fill="none" stroke="#34d1a3" stroke-width="14" stroke-linecap="round"/>
  <polygon points="180.2,92.4 143.0,84.3 164.3,57.8" fill="#34d1a3"/>
</svg>