<svg viewBox="0 0 240 240" xmlns="http://www.w3.org/2000/svg">
  <path d="M232.0,120.0 L176.0,217.0 L64.0,217.0 L8.0,120.0 L64.0,23.0 L176.0,23.0 Z" fill="none" stroke="#4fe9ff" stroke-width="16" stroke-linejoin="round" opacity="0.28"/>
  <path d="M232.0,120.0 L176.0,217.0 L64.0,217.0 L8.0,120.0 L64.0,23.0 L176.0,23.0 Z" fill="#161B22" stroke="#4fe9ff" stroke-width="5" stroke-linejoin="round"/>
  <path d="M46.0,120.0 L46.9,120.7 L47.9,121.4 L48.8,122.1 L49.7,122.9 L50.6,123.7 L51.6,124.4 L52.5,125.1 L53.4,125.8 L54.4,126.5 L55.3,127.1 L56.2,127.6 L57.1,128.0 L58.1,128.4 L59.0,128.6 L59.9,128.8 L60.9,128.8 L61.8,128.7 L62.7,128.5 L63.6,128.2 L64.6,127.8 L65.5,127.2 L66.4,126.5 L67.4,125.7 L68.3,124.8 L69.2,123.8 L70.1,122.7 L71.1,121.5 L72.0,120.2 L72.9,119.0 L73.9,117.7 L74.8,116.3 L75.7,115.0 L76.6,113.7 L77.6,112.5 L78.5,111.3 L79.4,110.1 L80.4,109.1 L81.3,108.2 L82.2,107.4 L83.1,106.8 L84.1,106.3 L85.0,105.9 L85.9,105.8 L86.9,105.8 L87.8,106.0 L88.7,106.4 L89.6,107.0 L90.6,107.8 L91.5,108.7 L92.4,109.8 L93.4,111.1 L94.3,112.5 L95.2,114.0 L96.1,115.7 L97.1,117.4 L98.0,119.3 L98.9,121.2 L99.9,123.1 L100.8,125.0 L101.7,126.9 L102.6,128.7 L103.6,130.5 L104.5,132.2 L105.4,133.7 L106.4,135.2 L107.3,136.4 L108.2,137.5 L109.1,138.4 L110.1,139.0 L111.0,139.4 L111.9,139.6 L112.9,139.6 L113.8,139.3 L114.7,138.7 L115.6,137.9 L116.6,136.9 L117.5,135.6 L118.4,134.1 L119.4,132.4 L120.3,130.5 L121.2,128.4 L122.1,126.2 L123.1,123.9 L124.0,121.4 L124.9,119.0 L125.9,116.4 L126.8,113.9 L127.7,111.5 L128.6,109.1 L129.6,106.8 L130.5,104.6 L131.4,102.5 L132.4,100.7 L133.3,99.1 L134.2,97.7 L135.1,96.6 L136.1,95.7 L137.0,95.2 L137.9,94.9 L138.9,95.0 L139.8,95.4 L140.7,96.1 L141.6,97.1 L142.6,98.4 L143.5,100.0 L144.4,101.9 L145.4,104.0 L146.3,106.4 L147.2,109.0 L148.1,111.7 L149.1,114.6 L150.0,117.6 L150.9,120.7 L151.9,123.8 L152.8,126.9 L153.7,130.0 L154.6,133.0 L155.6,135.8 L156.5,138.5 L157.4,141.0 L158.4,143.3 L159.3,145.3 L160.2,147.0 L161.1,148.4 L162.1,149.4 L163.0,150.2 L163.9,150.5 L164.9,150.4 L165.8,150.0 L166.7,149.2 L167.6,148.0 L168.6,146.5 L169.5,144.6 L170.4,142.3 L171.4,139.8 L172.3,136.9 L173.2,133.9 L174.1,130.6 L175.1,127.1 L176.0,123.6" fill="none" stroke="#4fe9ff" stroke-width="8" stroke-linecap="round"/><path d="M46.0,120.0 L46.9,119.3 L47.9,118.6 L48.8,117.9 L49.7,117.1 L50.6,116.3 L51.6,115.6 L52.5,114.9 L53.4,114.2 L54.4,113.5 L55.3,112.9 L56.2,112.4 L57.1,112.0 L58.1,111.6 L59.0,111.4 L59.9,111.2 L60.9,111.2 L61.8,111.3 L62.7,111.5 L63.6,111.8 L64.6,112.2 L65.5,112.8 L66.4,113.5 L67.4,114.3 L68.3,115.2 L69.2,116.2 L70.1,117.3 L71.1,118.5 L72.0,119.8 L72.9,121.0 L73.9,122.3 L74.8,123.7 L75.7,125.0 L76.6,126.3 L77.6,127.5 L78.5,128.7 L79.4,129.9 L80.4,130.9 L81.3,131.8 L82.2,132.6 L83.1,133.2 L84.1,133.7 L85.0,134.1 L85.9,134.2 L86.9,134.2 L87.8,134.0 L88.7,133.6 L89.6,133.0 L90.6,132.2 L91.5,131.3 L92.4,130.2 L93.4,128.9 L94.3,127.5 L95.2,126.0 L96.1,124.3 L97.1,122.6 L98.0,120.7 L98.9,118.8 L99.9,116.9 L100.8,115.0 L101.7,113.1 L102.6,111.3 L103.6,109.5 L104.5,107.8 L105.4,106.3 L106.4,104.8 L107.3,103.6 L108.2,102.5 L109.1,101.6 L110.1,101.0 L111.0,100.6 L111.9,100.4 L112.9,100.4 L113.8,100.7 L114.7,101.3 L115.6,102.1 L116.6,103.1 L117.5,104.4 L118.4,105.9 L119.4,107.6 L120.3,109.5 L121.2,111.6 L122.1,113.8 L123.1,116.1 L124.0,118.6 L124.9,121.0 L125.9,123.6 L126.8,126.1 L127.7,128.5 L128.6,130.9 L129.6,133.2 L130.5,135.4 L131.4,137.5 L132.4,139.3 L133.3,140.9 L134.2,142.3 L135.1,143.4 L136.1,144.3 L137.0,144.8 L137.9,145.1 L138.9,145.0 L139.8,144.6 L140.7,143.9 L141.6,142.9 L142.6,141.6 L143.5,140.0 L144.4,138.1 L145.4,136.0 L146.3,133.6 L147.2,131.0 L148.1,128.3 L149.1,125.4 L150.0,122.4 L150.9,119.3 L151.9,116.2 L152.8,113.1 L153.7,110.0 L154.6,107.0 L155.6,104.2 L156.5,101.5 L157.4,99.0 L158.4,96.7 L159.3,94.7 L160.2,93.0 L161.1,91.6 L162.1,90.6 L163.0,89.8 L163.9,89.5 L164.9,89.6 L165.8,90.0 L166.7,90.8 L167.6,92.0 L168.6,93.5 L169.5,95.4 L170.4,97.7 L171.4,100.2 L172.3,103.1 L173.2,106.1 L174.1,109.4 L175.1,112.9 L176.0,116.4" fill="none" stroke="#4fe9ff" stroke-width="8" stroke-linecap="round" opacity="0.55"/><circle cx="46" cy="120" r="9" fill="#4fe9ff"/><circle cx="196" cy="120" r="14" fill="#4fe9ff"/>
</svg>