<svg viewBox="0 0 240 240" xmlns="http://www.w3.org/2000/svg">
<path d="M232.0,120.0 L176.0,217.0 L64.0,217.0 L8.0,120.0 L64.0,23.0 L176.0,23.0 Z" fill="none" stroke="#e0594a" stroke-width="16" stroke-linejoin="round" opacity="0.28"/>
<path d="M232.0,120.0 L176.0,217.0 L64.0,217.0 L8.0,120.0 L64.0,23.0 L176.0,23.0 Z" fill="#161B22" stroke="#e0594a" stroke-width="5" stroke-linejoin="round"/><path d="M74.77,86.71 L74.77,91.80 Q72.79,90.92 70.90,90.47 Q69.02,90.01 67.35,90.01 Q65.12,90.01 64.06,90.63 Q62.99,91.24 62.99,92.53 Q62.99,93.50 63.71,94.04 Q64.43,94.57 66.31,94.96 L68.95,95.49 Q72.97,96.30 74.66,97.95 Q76.35,99.59 76.35,102.62 Q76.35,106.59 73.99,108.54 Q71.63,110.48 66.78,110.48 Q64.49,110.48 62.19,110.04 Q59.88,109.61 57.58,108.75 L57.58,103.52 Q59.88,104.74 62.03,105.37 Q64.18,105.99 66.19,105.99 Q68.22,105.99 69.29,105.31 Q70.37,104.63 70.37,103.37 Q70.37,102.25 69.64,101.63 Q68.91,101.02 66.72,100.53 L64.31,100.00 Q60.70,99.23 59.03,97.54 Q57.37,95.85 57.37,92.98 Q57.37,89.39 59.69,87.45 Q62.01,85.52 66.36,85.52 Q68.35,85.52 70.44,85.82 Q72.53,86.12 74.77,86.71 Z M81.80,85.95 L92.09,85.95 Q96.69,85.95 99.14,87.99 Q101.60,90.03 101.60,93.80 Q101.60,97.59 99.14,99.63 Q96.69,101.66 92.09,101.66 L88.01,101.66 L88.01,110.01 L81.80,110.01 L81.80,85.95 Z M88.01,90.45 L88.01,97.17 L91.43,97.17 Q93.24,97.17 94.22,96.29 Q95.21,95.41 95.21,93.80 Q95.21,92.19 94.22,91.32 Q93.24,90.45 91.43,90.45 L88.01,90.45 Z M117.58,105.63 L107.88,105.63 L106.35,110.01 L100.11,110.01 L109.02,85.95 L116.42,85.95 L125.33,110.01 L119.09,110.01 L117.58,105.63 Z M109.42,101.16 L116.02,101.16 L112.73,91.59 L109.42,101.16 Z M124.99,85.95 L130.93,85.95 L135.09,103.44 L139.22,85.95 L145.19,85.95 L149.32,103.44 L153.48,85.95 L159.37,85.95 L153.70,110.01 L146.55,110.01 L142.18,91.72 L137.87,110.01 L130.71,110.01 L124.99,85.95 Z M163.44,85.95 L170.37,85.95 L179.12,102.45 L179.12,85.95 L185.00,85.95 L185.00,110.01 L178.07,110.01 L169.32,93.51 L169.32,110.01 L163.44,110.01 L163.44,85.95 Z" fill="#e0594a"/><path d="M58.04,137.95 L74.81,137.95 L74.81,142.65 L64.25,142.65 L64.25,147.13 L74.18,147.13 L74.18,151.83 L64.25,151.83 L64.25,157.36 L75.16,157.36 L75.16,162.05 L58.04,162.05 L58.04,137.95 Z M80.62,137.95 L87.56,137.95 L96.33,154.48 L96.33,137.95 L102.22,137.95 L102.22,162.05 L95.28,162.05 L86.51,145.52 L86.51,162.05 L80.62,162.05 L80.62,137.95 Z M108.29,137.95 L125.06,137.95 L125.06,142.65 L114.50,142.65 L114.50,147.13 L124.43,147.13 L124.43,151.83 L114.50,151.83 L114.50,157.36 L125.41,157.36 L125.41,162.05 L108.29,162.05 L108.29,137.95 Z M130.87,137.95 L138.78,137.95 L144.27,150.85 L149.79,137.95 L157.68,137.95 L157.68,162.05 L151.81,162.05 L151.81,144.42 L146.26,157.42 L142.32,157.42 L136.76,144.42 L136.76,162.05 L130.87,162.05 L130.87,137.95 Z M160.41,137.95 L167.21,137.95 L172.70,146.54 L178.19,137.95 L185.00,137.95 L175.82,151.90 L175.82,162.05 L169.60,162.05 L169.60,151.90 L160.41,137.95 Z" fill="#e0594a"/></svg>