<svg viewBox="0 0 240 240" xmlns="http://www.w3.org/2000/svg">
<path d="M232.00,120.00 L176.00,216.99 L64.00,216.99 L8.00,120.00 L64.00,23.01 L176.00,23.01 Z" fill="none" stroke="#48d0c0" stroke-width="16" stroke-linejoin="round" opacity="0.28"/>
<path d="M232.00,120.00 L176.00,216.99 L64.00,216.99 L8.00,120.00 L64.00,23.01 L176.00,23.01 Z" fill="#161B22" stroke="#48d0c0" stroke-width="5" stroke-linejoin="round"/>
<path d="M58.31,144.66 L75.76,144.66 L75.76,95.15 L57.85,98.84 L57.85,85.40 L75.65,81.70 L94.42,81.70 L94.42,144.66 L111.87,144.66 L111.87,158.30 L58.31,158.30 L58.31,144.66 Z M194.00,103.16 L171.72,125.42 L194.00,147.58 L185.38,156.20 L163.11,134.03 L140.85,156.20 L132.23,147.58 L154.49,125.42 L132.23,103.16 L140.85,94.54 L163.11,116.80 L185.38,94.54 L194.00,103.16 Z" fill="#48d0c0"/>
</svg>