<svg viewBox="0 0 240 240" xmlns="http://www.w3.org/2000/svg">
<path d="M232.00,120.00 L176.00,216.99 L64.00,216.99 L8.00,120.00 L64.00,23.01 L176.00,23.01 Z" fill="none" stroke="#9aa4b4" stroke-width="16" stroke-linejoin="round" opacity="0.28"/>
<path d="M232.00,120.00 L176.00,216.99 L64.00,216.99 L8.00,120.00 L64.00,23.01 L176.00,23.01 Z" fill="#161B22" stroke="#9aa4b4" stroke-width="5" stroke-linejoin="round"/>
<path d="M62.81,42.50 L69.48,42.50 L74.15,62.12 L78.77,42.50 L85.48,42.50 L90.11,62.12 L94.78,42.50 L101.39,42.50 L95.03,69.50 L87.00,69.50 L82.10,48.98 L77.26,69.50 L69.23,69.50 L62.81,42.50 Z M120.67,64.58 L109.79,64.58 L108.07,69.50 L101.07,69.50 L111.07,42.50 L119.37,42.50 L129.37,69.50 L122.37,69.50 L120.67,64.58 Z M111.52,59.57 L118.92,59.57 L115.23,48.83 L111.52,59.57 Z M127.23,42.50 L134.23,42.50 L141.39,62.43 L148.53,42.50 L155.53,42.50 L145.53,69.50 L137.23,69.50 L127.23,42.50 Z M159.11,42.50 L177.90,42.50 L177.90,47.77 L166.07,47.77 L166.07,52.79 L177.20,52.79 L177.20,58.05 L166.07,58.05 L166.07,64.24 L178.30,64.24 L178.30,69.50 L159.11,69.50 L159.11,42.50 Z" fill="#9aa4b4"/>
<path d="M57.84,172.52 L61.62,172.52 L61.62,187.15 L57.84,187.15 L57.84,172.52 Z M76.19,180.47 L76.19,187.15 L72.66,187.15 L72.66,186.06 L72.66,182.04 Q72.66,180.61 72.60,180.08 Q72.54,179.54 72.38,179.28 Q72.18,178.94 71.82,178.75 Q71.47,178.55 71.02,178.55 Q69.92,178.55 69.29,179.40 Q68.66,180.25 68.66,181.75 L68.66,187.15 L65.16,187.15 L65.16,176.17 L68.66,176.17 L68.66,177.78 Q69.46,176.82 70.35,176.36 Q71.24,175.91 72.32,175.91 Q74.22,175.91 75.21,177.08 Q76.19,178.24 76.19,180.47 Z M86.60,172.52 L92.86,172.52 Q95.65,172.52 97.15,173.76 Q98.64,175.00 98.64,177.29 Q98.64,179.60 97.15,180.83 Q95.65,182.07 92.86,182.07 L90.37,182.07 L90.37,187.15 L86.60,187.15 L86.60,172.52 Z M90.37,175.25 L90.37,179.34 L92.46,179.34 Q93.56,179.34 94.15,178.80 Q94.75,178.27 94.75,177.29 Q94.75,176.31 94.15,175.78 Q93.56,175.25 92.46,175.25 L90.37,175.25 Z M109.31,179.16 Q108.85,178.95 108.39,178.85 Q107.94,178.74 107.48,178.74 Q106.12,178.74 105.39,179.61 Q104.66,180.48 104.66,182.09 L104.66,187.15 L101.16,187.15 L101.16,176.17 L104.66,176.17 L104.66,177.98 Q105.34,176.90 106.22,176.41 Q107.09,175.91 108.32,175.91 Q108.50,175.91 108.70,175.93 Q108.91,175.94 109.30,175.99 L109.31,179.16 Z M116.28,178.42 Q115.11,178.42 114.50,179.26 Q113.89,180.09 113.89,181.67 Q113.89,183.25 114.50,184.09 Q115.11,184.93 116.28,184.93 Q117.43,184.93 118.03,184.09 Q118.64,183.25 118.64,181.67 Q118.64,180.09 118.03,179.26 Q117.43,178.42 116.28,178.42 Z M116.28,175.91 Q119.11,175.91 120.71,177.44 Q122.30,178.97 122.30,181.67 Q122.30,184.38 120.71,185.91 Q119.11,187.44 116.28,187.44 Q113.44,187.44 111.83,185.91 Q110.23,184.38 110.23,181.67 Q110.23,178.97 111.83,177.44 Q113.44,175.91 116.28,175.91 Z M132.32,185.29 Q131.59,186.25 130.72,186.70 Q129.85,187.15 128.70,187.15 Q126.69,187.15 125.38,185.57 Q124.07,183.99 124.07,181.53 Q124.07,179.07 125.38,177.50 Q126.69,175.93 128.70,175.93 Q129.85,175.93 130.72,176.38 Q131.59,176.83 132.32,177.80 L132.32,176.17 L135.85,176.17 L135.85,186.05 Q135.85,188.69 134.18,190.09 Q132.50,191.48 129.33,191.48 Q128.30,191.48 127.34,191.33 Q126.38,191.17 125.41,190.85 L125.41,188.11 Q126.33,188.64 127.21,188.90 Q128.09,189.16 128.98,189.16 Q130.71,189.16 131.51,188.41 Q132.32,187.65 132.32,186.05 L132.32,185.29 Z M130.00,178.46 Q128.92,178.46 128.31,179.26 Q127.70,180.07 127.70,181.53 Q127.70,183.05 128.29,183.82 Q128.88,184.60 130.00,184.60 Q131.10,184.60 131.71,183.80 Q132.32,183.00 132.32,181.53 Q132.32,180.07 131.71,179.26 Q131.10,178.46 130.00,178.46 Z M147.38,179.16 Q146.92,178.95 146.46,178.85 Q146.00,178.74 145.54,178.74 Q144.19,178.74 143.46,179.61 Q142.73,180.48 142.73,182.09 L142.73,187.15 L139.22,187.15 L139.22,176.17 L142.73,176.17 L142.73,177.98 Q143.41,176.90 144.28,176.41 Q145.16,175.91 146.39,175.91 Q146.56,175.91 146.77,175.93 Q146.97,175.94 147.36,175.99 L147.38,179.16 Z M160.08,181.63 L160.08,182.63 L151.88,182.63 Q152.00,183.87 152.77,184.49 Q153.53,185.10 154.90,185.10 Q156.01,185.10 157.17,184.77 Q158.34,184.45 159.56,183.78 L159.56,186.48 Q158.32,186.95 157.07,187.20 Q155.83,187.44 154.58,187.44 Q151.60,187.44 149.95,185.92 Q148.30,184.41 148.30,181.67 Q148.30,178.99 149.92,177.45 Q151.54,175.91 154.39,175.91 Q156.97,175.91 158.53,177.47 Q160.08,179.02 160.08,181.63 Z M156.47,180.47 Q156.47,179.47 155.89,178.86 Q155.31,178.24 154.36,178.24 Q153.34,178.24 152.71,178.81 Q152.07,179.39 151.91,180.47 L156.47,180.47 Z M171.32,176.51 L171.32,179.18 Q170.19,178.71 169.14,178.48 Q168.09,178.24 167.16,178.24 Q166.16,178.24 165.67,178.49 Q165.19,178.74 165.19,179.26 Q165.19,179.68 165.56,179.91 Q165.92,180.13 166.87,180.24 L167.49,180.33 Q170.19,180.67 171.12,181.46 Q172.05,182.24 172.05,183.92 Q172.05,185.67 170.75,186.56 Q169.46,187.44 166.90,187.44 Q165.81,187.44 164.64,187.27 Q163.48,187.09 162.26,186.75 L162.26,184.08 Q163.31,184.59 164.41,184.85 Q165.51,185.10 166.65,185.10 Q167.68,185.10 168.20,184.82 Q168.72,184.54 168.72,183.97 Q168.72,183.50 168.36,183.28 Q168.00,183.05 166.93,182.92 L166.32,182.84 Q163.97,182.54 163.03,181.75 Q162.09,180.96 162.09,179.34 Q162.09,177.59 163.28,176.75 Q164.48,175.91 166.95,175.91 Q167.92,175.91 168.99,176.06 Q170.06,176.20 171.32,176.51 Z M183.27,176.51 L183.27,179.18 Q182.14,178.71 181.09,178.48 Q180.04,178.24 179.11,178.24 Q178.11,178.24 177.62,178.49 Q177.14,178.74 177.14,179.26 Q177.14,179.68 177.51,179.91 Q177.87,180.13 178.82,180.24 L179.44,180.33 Q182.14,180.67 183.07,181.46 Q184.00,182.24 184.00,183.92 Q184.00,185.67 182.70,186.56 Q181.41,187.44 178.85,187.44 Q177.76,187.44 176.59,187.27 Q175.43,187.09 174.21,186.75 L174.21,184.08 Q175.26,184.59 176.36,184.85 Q177.46,185.10 178.60,185.10 Q179.63,185.10 180.15,184.82 Q180.67,184.54 180.67,183.97 Q180.67,183.50 180.31,183.28 Q179.95,183.05 178.88,182.92 L178.27,182.84 Q175.92,182.54 174.98,181.75 Q174.04,180.96 174.04,179.34 Q174.04,177.59 175.24,176.75 Q176.43,175.91 178.90,175.91 Q179.87,175.91 180.94,176.06 Q182.01,176.20 183.27,176.51 Z" fill="#9aa4b4"/>

</svg>