<svg viewBox="0 0 240 240" xmlns="http://www.w3.org/2000/svg">
<path d="M232.0,120.0 L176.0,217.0 L64.0,217.0 L8.0,120.0 L64.0,23.0 L176.0,23.0 Z" fill="none" stroke="#f2c14e" stroke-width="16" stroke-linejoin="round" opacity="0.28"/>
<path d="M232.0,120.0 L176.0,217.0 L64.0,217.0 L8.0,120.0 L64.0,23.0 L176.0,23.0 Z" fill="#161B22" stroke="#f2c14e" stroke-width="5" stroke-linejoin="round"/><circle cx="108" cy="122" r="44" fill="#f2c14e"/><path d="M112.41,149.00 L107.71,149.00 L107.68,140.25 Q104.04,140.10 100.64,139.44 Q97.24,138.77 94.01,137.57 L94.01,129.95 Q97.36,131.67 100.78,132.59 Q104.19,133.50 107.71,133.61 L107.71,124.58 L106.75,124.40 Q99.80,123.18 96.88,120.57 Q93.96,117.94 93.96,113.03 Q93.96,107.83 97.52,104.91 Q101.08,101.98 107.68,101.72 L107.71,95.00 L112.41,95.00 L112.41,101.61 Q115.33,101.84 118.23,102.33 Q121.14,102.82 124.08,103.61 L124.08,110.99 Q121.17,109.77 118.26,109.10 Q115.35,108.41 112.41,108.26 L112.41,116.60 L113.35,116.78 Q120.73,117.94 123.71,120.66 Q126.70,123.38 126.70,128.70 Q126.70,134.05 123.14,136.91 Q119.60,139.78 112.41,140.19 L112.41,149.00 Z M107.71,115.93 L107.71,108.35 Q105.64,108.46 104.40,109.47 Q103.18,110.47 103.18,112.02 Q103.18,113.73 104.30,114.71 Q105.44,115.67 107.71,115.93 Z M112.41,125.41 L112.41,133.50 Q114.95,133.47 116.21,132.51 Q117.48,131.56 117.48,129.63 Q117.48,127.66 116.31,126.68 Q115.15,125.70 112.41,125.41 Z" fill="#161B22"/><rect x="153" y="74" width="30" height="9" rx="4" fill="#f2c14e"/><rect x="164" y="63" width="9" height="30" rx="4" fill="#f2c14e"/></svg>