<svg viewBox="0 0 240 240" xmlns="http://www.w3.org/2000/svg">
<path d="M232.0,120.0 L176.0,217.0 L64.0,217.0 L8.0,120.0 L64.0,23.0 L176.0,23.0 Z" fill="none" stroke="#f24fbe" stroke-width="16" stroke-linejoin="round" opacity="0.28"/>
<path d="M232.0,120.0 L176.0,217.0 L64.0,217.0 L8.0,120.0 L64.0,23.0 L176.0,23.0 Z" fill="#161B22" stroke="#f24fbe" stroke-width="5" stroke-linejoin="round"/><path d="M166,80 H200 V160 H166" fill="none" stroke="#9aa4b4" stroke-width="10" stroke-linejoin="round" stroke-linecap="round"/><rect x="19.5" y="113.5" width="13" height="13" rx="2" fill="#9aa4b4" transform="rotate(0 26 120)"/><rect x="41.5" y="113.5" width="13" height="13" rx="2" fill="#9aa4b4" transform="rotate(0 48 120)"/><rect x="63.5" y="113.5" width="13" height="13" rx="2" fill="#9aa4b4" transform="rotate(0 70 120)"/><rect x="87.5" y="106.5" width="13" height="13" rx="2" fill="#9aa4b4" transform="rotate(14 94 113)"/><rect x="111.5" y="125.5" width="13" height="13" rx="2" fill="#9aa4b4" transform="rotate(-26 118 132)"/><rect x="137.5" y="100.5" width="13" height="13" rx="2" fill="#9aa4b4" transform="rotate(20 144 107)"/><circle cx="74.0" cy="52.0" r="4.1" fill="#f24fbe"/><polygon points="78.1,52.0 82.9,53.6 77.9,53.4" fill="#f24fbe"/><polygon points="77.6,54.1 80.9,57.8 76.7,55.2" fill="#f24fbe"/><polygon points="76.1,55.6 77.1,60.5 74.7,56.1" fill="#f24fbe"/><polygon points="74.0,56.1 72.4,60.9 72.6,55.9" fill="#f24fbe"/><polygon points="71.9,55.6 68.2,58.9 70.8,54.7" fill="#f24fbe"/><polygon points="70.4,54.1 65.5,55.1 69.9,52.7" fill="#f24fbe"/><polygon points="69.9,52.0 65.1,50.4 70.1,50.6" fill="#f24fbe"/><polygon points="70.4,49.9 67.1,46.2 71.3,48.8" fill="#f24fbe"/><polygon points="71.9,48.4 70.9,43.5 73.3,47.9" fill="#f24fbe"/><polygon points="74.0,47.9 75.6,43.1 75.4,48.1" fill="#f24fbe"/><polygon points="76.1,48.4 79.8,45.1 77.2,49.3" fill="#f24fbe"/><polygon points="77.6,49.9 82.5,48.9 78.1,51.3" fill="#f24fbe"/><circle cx="116.0" cy="70.0" r="3.7" fill="#f24fbe"/><polygon points="119.2,71.9 122.1,75.1 118.4,72.8" fill="#f24fbe"/><polygon points="117.9,73.1 119.0,77.4 116.8,73.6" fill="#f24fbe"/><polygon points="116.3,73.7 115.2,78.0 115.1,73.6" fill="#f24fbe"/><polygon points="114.5,73.4 111.6,76.7 113.5,72.7" fill="#f24fbe"/><polygon points="113.1,72.3 109.0,73.9 112.5,71.2" fill="#f24fbe"/><polygon points="112.4,70.7 108.0,70.2 112.4,69.5" fill="#f24fbe"/><polygon points="112.5,68.9 108.8,66.5 113.0,67.9" fill="#f24fbe"/><polygon points="113.4,67.4 111.3,63.5 114.3,66.7" fill="#f24fbe"/><polygon points="114.9,66.5 114.8,62.1 116.1,66.3" fill="#f24fbe"/><polygon points="116.6,66.4 118.6,62.4 117.8,66.8" fill="#f24fbe"/><polygon points="118.2,67.1 121.8,64.5 119.1,68.0" fill="#f24fbe"/><polygon points="119.3,68.5 123.7,67.9 119.7,69.6" fill="#f24fbe"/><polygon points="119.7,70.2 123.8,71.7 119.4,71.4" fill="#f24fbe"/><circle cx="152.0" cy="58.0" r="3.7" fill="#f24fbe"/><polygon points="155.6,58.8 159.4,61.0 155.1,60.0" fill="#f24fbe"/><polygon points="154.7,60.5 156.9,64.3 153.7,61.3" fill="#f24fbe"/><polygon points="153.1,61.5 153.1,65.9 151.9,61.7" fill="#f24fbe"/><polygon points="151.2,61.6 149.0,65.4 150.0,61.1" fill="#f24fbe"/><polygon points="149.5,60.7 145.7,62.9 148.7,59.7" fill="#f24fbe"/><polygon points="148.5,59.1 144.1,59.1 148.3,57.9" fill="#f24fbe"/><polygon points="148.4,57.2 144.6,55.0 148.9,56.0" fill="#f24fbe"/><polygon points="149.3,55.5 147.1,51.7 150.3,54.7" fill="#f24fbe"/><polygon points="150.9,54.5 150.9,50.1 152.1,54.3" fill="#f24fbe"/><polygon points="152.8,54.4 155.0,50.6 154.0,54.9" fill="#f24fbe"/><polygon points="154.5,55.3 158.3,53.1 155.3,56.3" fill="#f24fbe"/><polygon points="155.5,56.9 159.9,56.9 155.7,58.1" fill="#f24fbe"/><circle cx="96.0" cy="98.0" r="3.7" fill="#f24fbe"/><polygon points="99.7,98.2 103.7,100.1 99.3,99.6" fill="#f24fbe"/><polygon points="99.0,100.2 101.4,103.9 97.9,101.1" fill="#f24fbe"/><polygon points="97.3,101.4 97.3,105.9 95.9,101.7" fill="#f24fbe"/><polygon points="95.2,101.6 92.9,105.4 93.9,101.0" fill="#f24fbe"/><polygon points="93.4,100.6 89.4,102.5 92.6,99.4" fill="#f24fbe"/><polygon points="92.4,98.8 88.0,98.2 92.4,97.4" fill="#f24fbe"/><polygon points="92.5,96.7 89.2,93.8 93.3,95.5" fill="#f24fbe"/><polygon points="93.8,95.1 92.5,90.8 95.1,94.4" fill="#f24fbe"/><polygon points="95.7,94.3 96.9,90.1 97.1,94.5" fill="#f24fbe"/><polygon points="97.8,94.8 101.1,91.8 98.8,95.7" fill="#f24fbe"/><polygon points="99.2,96.2 103.6,95.6 99.7,97.6" fill="#f24fbe"/><circle cx="60.0" cy="96.0" r="3.7" fill="#f24fbe"/><polygon points="63.5,97.1 67.1,99.8 62.9,98.3" fill="#f24fbe"/><polygon points="62.5,98.7 64.2,102.8 61.4,99.4" fill="#f24fbe"/><polygon points="60.8,99.6 60.3,104.0 59.5,99.6" fill="#f24fbe"/><polygon points="58.9,99.5 56.2,103.1 57.7,98.9" fill="#f24fbe"/><polygon points="57.3,98.5 53.2,100.2 56.6,97.4" fill="#f24fbe"/><polygon points="56.4,96.8 52.0,96.3 56.4,95.5" fill="#f24fbe"/><polygon points="56.5,94.9 52.9,92.2 57.1,93.7" fill="#f24fbe"/><polygon points="57.5,93.3 55.8,89.2 58.6,92.6" fill="#f24fbe"/><polygon points="59.2,92.4 59.7,88.0 60.5,92.4" fill="#f24fbe"/><polygon points="61.1,92.5 63.8,88.9 62.3,93.1" fill="#f24fbe"/><polygon points="62.7,93.5 66.8,91.8 63.4,94.6" fill="#f24fbe"/><polygon points="63.6,95.2 68.0,95.7 63.6,96.5" fill="#f24fbe"/><circle cx="88.0" cy="190.0" r="4.1" fill="#f24fbe"/><polygon points="92.1,189.2 97.0,190.0 92.1,190.8" fill="#f24fbe"/><polygon points="91.8,191.5 95.6,194.9 91.0,192.9" fill="#f24fbe"/><polygon points="90.4,193.4 91.7,198.2 89.0,194.0" fill="#f24fbe"/><polygon points="88.2,194.1 86.7,198.9 86.6,193.9" fill="#f24fbe"/><polygon points="85.9,193.6 82.1,196.8 84.7,192.5" fill="#f24fbe"/><polygon points="84.3,191.9 79.4,192.5 83.9,190.4" fill="#f24fbe"/><polygon points="83.9,189.6 79.4,187.5 84.3,188.1" fill="#f24fbe"/><polygon points="84.7,187.5 82.1,183.2 85.9,186.4" fill="#f24fbe"/><polygon points="86.6,186.1 86.7,181.1 88.2,185.9" fill="#f24fbe"/><polygon points="89.0,186.0 91.7,181.8 90.4,186.6" fill="#f24fbe"/><polygon points="91.0,187.1 95.6,185.1 91.8,188.5" fill="#f24fbe"/><circle cx="146.0" cy="170.0" r="3.7" fill="#f24fbe"/><polygon points="149.6,170.9 153.3,173.4 149.0,172.1" fill="#f24fbe"/><polygon points="148.6,172.6 150.6,176.6 147.5,173.3" fill="#f24fbe"/><polygon points="147.0,173.6 146.7,178.0 145.7,173.7" fill="#f24fbe"/><polygon points="145.1,173.6 142.6,177.3 143.9,173.0" fill="#f24fbe"/><polygon points="143.4,172.6 139.4,174.6 142.7,171.5" fill="#f24fbe"/><polygon points="142.4,171.0 138.0,170.7 142.3,169.7" fill="#f24fbe"/><polygon points="142.4,169.1 138.7,166.6 143.0,167.9" fill="#f24fbe"/><polygon points="143.4,167.4 141.4,163.4 144.5,166.7" fill="#f24fbe"/><polygon points="145.0,166.4 145.3,162.0 146.3,166.3" fill="#f24fbe"/><polygon points="146.9,166.4 149.4,162.7 148.1,167.0" fill="#f24fbe"/><polygon points="148.6,167.4 152.6,165.4 149.3,168.5" fill="#f24fbe"/><polygon points="149.6,169.0 154.0,169.3 149.7,170.3" fill="#f24fbe"/><circle cx="116.0" cy="185.0" r="3.7" fill="#f24fbe"/><polygon points="119.7,184.9 123.9,186.1 119.5,186.1" fill="#f24fbe"/><polygon points="119.3,186.6 122.5,189.7 118.6,187.6" fill="#f24fbe"/><polygon points="118.2,188.0 119.6,192.2 117.1,188.5" fill="#f24fbe"/><polygon points="116.5,188.6 115.8,193.0 115.3,188.6" fill="#f24fbe"/><polygon points="114.8,188.5 112.1,192.0 113.7,187.9" fill="#f24fbe"/><polygon points="113.3,187.5 109.3,189.4 112.6,186.5" fill="#f24fbe"/><polygon points="112.4,186.0 108.0,185.8 112.3,184.8" fill="#f24fbe"/><polygon points="112.4,184.2 108.6,182.0 112.9,183.1" fill="#f24fbe"/><polygon points="113.2,182.6 110.8,178.9 114.1,181.8" fill="#f24fbe"/><polygon points="114.6,181.6 114.2,177.2 115.8,181.3" fill="#f24fbe"/><polygon points="116.4,181.3 118.1,177.3 117.5,181.6" fill="#f24fbe"/><polygon points="118.0,181.9 121.4,179.1 118.9,182.7" fill="#f24fbe"/><polygon points="119.2,183.2 123.5,182.3 119.6,184.3" fill="#f24fbe"/><circle cx="70.0" cy="146.0" r="3.7" fill="#f24fbe"/><polygon points="73.3,147.5 76.6,150.6 72.6,148.6" fill="#f24fbe"/><polygon points="72.1,149.0 73.4,153.3 70.9,149.6" fill="#f24fbe"/><polygon points="70.3,149.7 69.3,154.0 69.0,149.6" fill="#f24fbe"/><polygon points="68.5,149.3 65.4,152.6 67.4,148.6" fill="#f24fbe"/><polygon points="67.0,148.1 62.7,149.4 66.4,146.9" fill="#f24fbe"/><polygon points="66.3,146.3 62.0,145.3 66.4,145.0" fill="#f24fbe"/><polygon points="66.7,144.5 63.4,141.4 67.4,143.4" fill="#f24fbe"/><polygon points="67.9,143.0 66.6,138.7 69.1,142.4" fill="#f24fbe"/><polygon points="69.7,142.3 70.7,138.0 71.0,142.4" fill="#f24fbe"/><polygon points="71.5,142.7 74.6,139.4 72.6,143.4" fill="#f24fbe"/><polygon points="73.0,143.9 77.3,142.6 73.6,145.1" fill="#f24fbe"/><polygon points="73.7,145.7 78.0,146.7 73.6,147.0" fill="#f24fbe"/><circle cx="138.0" cy="152.0" r="3.7" fill="#f24fbe"/><polygon points="141.6,152.7 145.5,154.7 141.2,153.8" fill="#f24fbe"/><polygon points="140.9,154.3 143.4,157.9 140.0,155.1" fill="#f24fbe"/><polygon points="139.5,155.4 140.0,159.7 138.3,155.7" fill="#f24fbe"/><polygon points="137.8,155.7 136.2,159.8 136.6,155.4" fill="#f24fbe"/><polygon points="136.1,155.1 132.8,158.1 135.2,154.4" fill="#f24fbe"/><polygon points="134.8,153.9 130.6,154.9 134.4,152.8" fill="#f24fbe"/><polygon points="134.3,152.2 130.0,151.1 134.5,151.0" fill="#f24fbe"/><polygon points="134.6,150.5 131.4,147.5 135.3,149.5" fill="#f24fbe"/><polygon points="135.7,149.1 134.2,145.0 136.8,148.5" fill="#f24fbe"/><polygon points="137.3,148.4 137.9,144.0 138.6,148.4" fill="#f24fbe"/><polygon points="139.1,148.5 141.6,144.9 140.2,149.0" fill="#f24fbe"/><polygon points="140.6,149.4 144.5,147.4 141.3,150.4" fill="#f24fbe"/><polygon points="141.5,150.9 145.9,150.9 141.7,152.1" fill="#f24fbe"/><circle cx="180.0" cy="114.0" r="4.1" fill="#f24fbe"/><polygon points="184.1,114.1 188.8,115.9 183.8,115.6" fill="#f24fbe"/><polygon points="183.5,116.2 186.7,120.0 182.5,117.3" fill="#f24fbe"/><polygon points="182.0,117.6 182.8,122.6 180.6,118.1" fill="#f24fbe"/><polygon points="179.9,118.1 178.1,122.8 178.4,117.8" fill="#f24fbe"/><polygon points="177.8,117.5 174.0,120.7 176.7,116.5" fill="#f24fbe"/><polygon points="176.4,116.0 171.4,116.8 175.9,114.6" fill="#f24fbe"/><polygon points="175.9,113.9 171.2,112.1 176.2,112.4" fill="#f24fbe"/><polygon points="176.5,111.8 173.3,108.0 177.5,110.7" fill="#f24fbe"/><polygon points="178.0,110.4 177.2,105.4 179.4,109.9" fill="#f24fbe"/><polygon points="180.1,109.9 181.9,105.2 181.6,110.2" fill="#f24fbe"/><polygon points="182.2,110.5 186.0,107.3 183.3,111.5" fill="#f24fbe"/><polygon points="183.6,112.0 188.6,111.2 184.1,113.4" fill="#f24fbe"/><circle cx="186.0" cy="146.0" r="3.7" fill="#f24fbe"/><polygon points="188.8,148.4 191.1,152.1 187.9,149.2" fill="#f24fbe"/><polygon points="187.4,149.4 187.7,153.8 186.2,149.7" fill="#f24fbe"/><polygon points="185.6,149.7 183.9,153.7 184.5,149.3" fill="#f24fbe"/><polygon points="184.0,149.1 180.5,151.8 183.1,148.2" fill="#f24fbe"/><polygon points="182.8,147.8 178.4,148.6 182.4,146.6" fill="#f24fbe"/><polygon points="182.3,146.1 178.1,144.8 182.5,144.9" fill="#f24fbe"/><polygon points="182.7,144.3 179.5,141.3 183.4,143.4" fill="#f24fbe"/><polygon points="183.9,143.0 182.5,138.8 184.9,142.5" fill="#f24fbe"/><polygon points="185.5,142.4 186.2,138.0 186.7,142.4" fill="#f24fbe"/><polygon points="187.2,142.5 189.9,139.0 188.3,143.1" fill="#f24fbe"/><polygon points="188.7,143.5 192.7,141.6 189.4,144.5" fill="#f24fbe"/><polygon points="189.6,145.1 194.0,145.2 189.7,146.3" fill="#f24fbe"/><polygon points="189.6,146.8 193.4,149.0 189.1,147.9" fill="#f24fbe"/><circle cx="166.0" cy="138.0" r="3.2" fill="#f24fbe"/><polygon points="169.2,138.4 172.7,140.2 168.8,139.5" fill="#f24fbe"/><polygon points="168.5,140.0 170.7,143.2 167.7,140.7" fill="#f24fbe"/><polygon points="167.2,141.0 167.5,144.8 166.1,141.2" fill="#f24fbe"/><polygon points="165.6,141.2 163.8,144.7 164.5,140.8" fill="#f24fbe"/><polygon points="164.0,140.5 160.8,142.7 163.3,139.7" fill="#f24fbe"/><polygon points="163.0,139.2 159.2,139.5 162.8,138.1" fill="#f24fbe"/><polygon points="162.8,137.6 159.3,135.8 163.2,136.5" fill="#f24fbe"/><polygon points="163.5,136.0 161.3,132.8 164.3,135.3" fill="#f24fbe"/><polygon points="164.8,135.0 164.5,131.2 165.9,134.8" fill="#f24fbe"/><polygon points="166.4,134.8 168.2,131.3 167.5,135.2" fill="#f24fbe"/><polygon points="168.0,135.5 171.2,133.3 168.7,136.3" fill="#f24fbe"/><polygon points="169.0,136.8 172.8,136.5 169.2,137.9" fill="#f24fbe"/><circle cx="104.0" cy="120.0" r="4.1" fill="#f24fbe"/><polygon points="108.1,119.8 112.9,121.3 107.9,121.3" fill="#f24fbe"/><polygon points="107.7,121.9 111.1,125.5 106.8,123.1" fill="#f24fbe"/><polygon points="106.2,123.5 107.4,128.3 104.8,124.1" fill="#f24fbe"/><polygon points="104.2,124.1 102.7,128.9 102.7,123.9" fill="#f24fbe"/><polygon points="102.1,123.7 98.5,127.1 100.9,122.8" fill="#f24fbe"/><polygon points="100.5,122.2 95.7,123.4 99.9,120.8" fill="#f24fbe"/><polygon points="99.9,120.2 95.1,118.7 100.1,118.7" fill="#f24fbe"/><polygon points="100.3,118.1 96.9,114.5 101.2,116.9" fill="#f24fbe"/><polygon points="101.8,116.5 100.6,111.7 103.2,115.9" fill="#f24fbe"/><polygon points="103.8,115.9 105.3,111.1 105.3,116.1" fill="#f24fbe"/><polygon points="105.9,116.3 109.5,112.9 107.1,117.2" fill="#f24fbe"/><polygon points="107.5,117.8 112.3,116.6 108.1,119.2" fill="#f24fbe"/><circle cx="130.0" cy="123.0" r="4.6" fill="#f24fbe"/><polygon points="134.3,124.6 138.7,128.0 133.6,125.9" fill="#f24fbe"/><polygon points="133.1,126.4 135.3,131.5 131.8,127.2" fill="#f24fbe"/><polygon points="131.1,127.5 130.8,133.0 129.6,127.6" fill="#f24fbe"/><polygon points="128.9,127.5 126.1,132.2 127.5,126.9" fill="#f24fbe"/><polygon points="127.0,126.5 122.3,129.3 126.0,125.3" fill="#f24fbe"/><polygon points="125.7,124.6 120.2,125.0 125.4,123.2" fill="#f24fbe"/><polygon points="125.4,122.5 120.4,120.2 125.9,121.0" fill="#f24fbe"/><polygon points="126.2,120.4 122.8,116.1 127.2,119.3" fill="#f24fbe"/><polygon points="127.8,118.9 126.8,113.5 129.3,118.5" fill="#f24fbe"/><polygon points="130.0,118.4 131.6,113.1 131.5,118.6" fill="#f24fbe"/><polygon points="132.1,118.9 136.0,115.0 133.3,119.8" fill="#f24fbe"/><polygon points="133.8,120.4 139.0,118.7 134.4,121.7" fill="#f24fbe"/><polygon points="134.6,122.4 140.0,123.4 134.5,123.9" fill="#f24fbe"/><circle cx="152.0" cy="97.0" r="3.7" fill="#f24fbe"/><polygon points="155.7,97.3 159.7,99.1 155.3,98.6" fill="#f24fbe"/><polygon points="155.0,99.1 157.7,102.7 154.1,100.0" fill="#f24fbe"/><polygon points="153.6,100.3 154.1,104.7 152.3,100.7" fill="#f24fbe"/><polygon points="151.7,100.7 149.9,104.7 150.4,100.3" fill="#f24fbe"/><polygon points="149.9,100.0 146.3,102.7 149.0,99.1" fill="#f24fbe"/><polygon points="148.7,98.6 144.3,99.1 148.3,97.3" fill="#f24fbe"/><polygon points="148.3,96.7 144.3,94.9 148.7,95.4" fill="#f24fbe"/><polygon points="149.0,94.9 146.3,91.3 149.9,94.0" fill="#f24fbe"/><polygon points="150.4,93.7 149.9,89.3 151.7,93.3" fill="#f24fbe"/><polygon points="152.3,93.3 154.1,89.3 153.6,93.7" fill="#f24fbe"/><polygon points="154.1,94.0 157.7,91.3 155.0,94.9" fill="#f24fbe"/><polygon points="155.3,95.4 159.7,94.9 155.7,96.7" fill="#f24fbe"/><circle cx="110.0" cy="138.0" r="3.7" fill="#f24fbe"/><polygon points="113.1,140.0 115.8,143.6 112.2,141.0" fill="#f24fbe"/><polygon points="111.6,141.3 112.2,145.7 110.4,141.7" fill="#f24fbe"/><polygon points="109.8,141.7 108.1,145.8 108.5,141.4" fill="#f24fbe"/><polygon points="108.0,141.1 104.4,143.8 107.0,140.2" fill="#f24fbe"/><polygon points="106.7,139.6 102.3,140.2 106.3,138.4" fill="#f24fbe"/><polygon points="106.3,137.8 102.2,136.1 106.6,136.5" fill="#f24fbe"/><polygon points="106.9,136.0 104.2,132.4 107.8,135.0" fill="#f24fbe"/><polygon points="108.4,134.7 107.8,130.3 109.6,134.3" fill="#f24fbe"/><polygon points="110.2,134.3 111.9,130.2 111.5,134.6" fill="#f24fbe"/><polygon points="112.0,134.9 115.6,132.2 113.0,135.8" fill="#f24fbe"/><polygon points="113.3,136.4 117.7,135.8 113.7,137.6" fill="#f24fbe"/><polygon points="113.7,138.2 117.8,139.9 113.4,139.5" fill="#f24fbe"/></svg>