<svg viewBox="0 0 240 240" xmlns="http://www.w3.org/2000/svg">
<path d="M232.0,120.0 L176.0,217.0 L64.0,217.0 L8.0,120.0 L64.0,23.0 L176.0,23.0 Z" fill="none" stroke="#e0594a" stroke-width="16" stroke-linejoin="round" opacity="0.28"/>
<path d="M232.0,120.0 L176.0,217.0 L64.0,217.0 L8.0,120.0 L64.0,23.0 L176.0,23.0 Z" fill="#161B22" stroke="#e0594a" stroke-width="5" stroke-linejoin="round"/><path d="M74.77,86.71 L74.77,91.80 Q72.79,90.92 70.90,90.47 Q69.02,90.01 67.35,90.01 Q65.12,90.01 64.06,90.63 Q62.99,91.24 62.99,92.53 Q62.99,93.50 63.71,94.04 Q64.43,94.57 66.31,94.96 L68.95,95.49 Q72.97,96.30 74.66,97.95 Q76.35,99.59 76.35,102.62 Q76.35,106.59 73.99,108.54 Q71.63,110.48 66.78,110.48 Q64.49,110.48 62.19,110.04 Q59.88,109.61 57.58,108.75 L57.58,103.52 Q59.88,104.74 62.03,105.37 Q64.18,105.99 66.19,105.99 Q68.22,105.99 69.29,105.31 Q70.37,104.63 70.37,103.37 Q70.37,102.25 69.64,101.63 Q68.91,101.02 66.72,100.53 L64.31,100.00 Q60.70,99.23 59.03,97.54 Q57.37,95.85 57.37,92.98 Q57.37,89.39 59.69,87.45 Q62.01,85.52 66.36,85.52 Q68.35,85.52 70.44,85.82 Q72.53,86.12 74.77,86.71 Z M81.80,85.95 L92.09,85.95 Q96.69,85.95 99.14,87.99 Q101.60,90.03 101.60,93.80 Q101.60,97.59 99.14,99.63 Q96.69,101.66 92.09,101.66 L88.01,101.66 L88.01,110.01 L81.80,110.01 L81.80,85.95 Z M88.01,90.45 L88.01,97.17 L91.43,97.17 Q93.24,97.17 94.22,96.29 Q95.21,95.41 95.21,93.80 Q95.21,92.19 94.22,91.32 Q93.24,90.45 91.43,90.45 L88.01,90.45 Z M117.58,105.63 L107.88,105.63 L106.35,110.01 L100.11,110.01 L109.02,85.95 L116.42,85.95 L125.33,110.01 L119.09,110.01 L117.58,105.63 Z M109.42,101.16 L116.02,101.16 L112.73,91.59 L109.42,101.16 Z M124.99,85.95 L130.93,85.95 L135.09,103.44 L139.22,85.95 L145.19,85.95 L149.32,103.44 L153.48,85.95 L159.37,85.95 L153.70,110.01 L146.55,110.01 L142.18,91.72 L137.87,110.01 L130.71,110.01 L124.99,85.95 Z M163.44,85.95 L170.37,85.95 L179.12,102.45 L179.12,85.95 L185.00,85.95 L185.00,110.01 L178.07,110.01 L169.32,93.51 L169.32,110.01 L163.44,110.01 L163.44,85.95 Z" fill="#e0594a"/><path d="M53.59,139.72 L67.87,139.72 L67.87,143.72 L58.88,143.72 L58.88,147.54 L67.34,147.54 L67.34,151.55 L58.88,151.55 L58.88,156.25 L68.17,156.25 L68.17,160.25 L53.59,160.25 L53.59,139.72 Z M72.82,139.72 L78.73,139.72 L86.20,153.80 L86.20,139.72 L91.22,139.72 L91.22,160.25 L85.31,160.25 L77.84,146.17 L77.84,160.25 L72.82,160.25 L72.82,139.72 Z M96.39,139.72 L110.67,139.72 L110.67,143.72 L101.69,143.72 L101.69,147.54 L110.14,147.54 L110.14,151.55 L101.69,151.55 L101.69,156.25 L110.98,156.25 L110.98,160.25 L96.39,160.25 L96.39,139.72 Z M115.63,139.72 L122.37,139.72 L127.04,150.71 L131.74,139.72 L138.47,139.72 L138.47,160.25 L133.46,160.25 L133.46,145.23 L128.73,156.30 L125.38,156.30 L120.64,145.23 L120.64,160.25 L115.63,160.25 L115.63,139.72 Z M143.65,139.72 L148.95,139.72 L148.95,160.25 L143.65,160.25 L143.65,139.72 Z M154.13,139.72 L168.41,139.72 L168.41,143.72 L159.42,143.72 L159.42,147.54 L167.88,147.54 L167.88,151.55 L159.42,151.55 L159.42,156.25 L168.72,156.25 L168.72,160.25 L154.13,160.25 L154.13,139.72 Z M187.65,140.37 L187.65,144.71 Q185.96,143.96 184.35,143.57 Q182.74,143.19 181.31,143.19 Q179.42,143.19 178.51,143.71 Q177.60,144.23 177.60,145.33 Q177.60,146.16 178.21,146.62 Q178.82,147.08 180.43,147.41 L182.69,147.86 Q186.11,148.55 187.55,149.95 Q189.00,151.35 189.00,153.94 Q189.00,157.33 186.98,158.99 Q184.97,160.65 180.83,160.65 Q178.88,160.65 176.91,160.28 Q174.95,159.91 172.98,159.18 L172.98,154.71 Q174.95,155.75 176.78,156.29 Q178.62,156.81 180.32,156.81 Q182.06,156.81 182.98,156.24 Q183.90,155.66 183.90,154.58 Q183.90,153.62 183.27,153.10 Q182.65,152.58 180.78,152.16 L178.73,151.71 Q175.65,151.05 174.22,149.61 Q172.80,148.16 172.80,145.72 Q172.80,142.65 174.78,141.00 Q176.76,139.35 180.47,139.35 Q182.17,139.35 183.95,139.60 Q185.74,139.86 187.65,140.37 Z" fill="#e0594a"/></svg>