<svg viewBox="0 0 240 240" xmlns="http://www.w3.org/2000/svg">
<path d="M232.00,120.00 L176.00,216.99 L64.00,216.99 L8.00,120.00 L64.00,23.01 L176.00,23.01 Z" fill="none" stroke="#ff5a3c" stroke-width="16" stroke-linejoin="round" opacity="0.28"/>
<path d="M232.00,120.00 L176.00,216.99 L64.00,216.99 L8.00,120.00 L64.00,23.01 L176.00,23.01 Z" fill="#161B22" stroke="#ff5a3c" stroke-width="5" stroke-linejoin="round"/>
<path d="M94.93,116.94 Q102.68,118.94 106.70,123.90 Q110.74,128.84 110.74,136.49 Q110.74,147.88 102.01,153.81 Q93.29,159.73 76.58,159.73 Q70.67,159.73 64.75,158.78 Q58.82,157.83 53.03,155.92 L53.03,140.69 Q58.57,143.47 64.02,144.88 Q69.49,146.29 74.78,146.29 Q82.62,146.29 86.81,143.58 Q90.99,140.86 90.99,135.77 Q90.99,130.53 86.71,127.84 Q82.42,125.15 74.05,125.15 L66.16,125.15 L66.16,112.42 L74.46,112.42 Q81.92,112.42 85.54,110.09 Q89.19,107.76 89.19,102.99 Q89.19,98.59 85.64,96.17 Q82.11,93.76 75.65,93.76 Q70.89,93.76 66.01,94.84 Q61.13,95.91 56.31,98.01 L56.31,83.55 Q62.15,81.91 67.90,81.09 Q73.64,80.27 79.19,80.27 Q94.11,80.27 101.52,85.18 Q108.94,90.07 108.94,99.92 Q108.94,106.63 105.39,110.91 Q101.86,115.20 94.93,116.94 Z M194.00,103.10 L171.72,125.36 L194.00,147.52 L185.38,156.14 L163.11,133.98 L140.85,156.14 L132.23,147.52 L154.49,125.36 L132.23,103.10 L140.85,94.48 L163.11,116.74 L185.38,94.48 L194.00,103.10 Z" fill="#ff5a3c"/>
</svg>