<svg viewBox="0 0 240 240" xmlns="http://www.w3.org/2000/svg">
<path d="M232.00,120.00 L176.00,216.99 L64.00,216.99 L8.00,120.00 L64.00,23.01 L176.00,23.01 Z" fill="none" stroke="#f5b13a" stroke-width="16" stroke-linejoin="round" opacity="0.28"/>
<path d="M232.00,120.00 L176.00,216.99 L64.00,216.99 L8.00,120.00 L64.00,23.01 L176.00,23.01 Z" fill="#161B22" stroke="#f5b13a" stroke-width="5" stroke-linejoin="round"/>
<path d="M76.27,144.47 L109.97,144.47 L109.97,158.99 L54.31,158.99 L54.31,144.47 L82.26,119.79 Q86.02,116.41 87.81,113.17 Q89.60,109.94 89.60,106.46 Q89.60,101.07 85.99,97.79 Q82.38,94.51 76.37,94.51 Q71.76,94.51 66.26,96.48 Q60.77,98.45 54.52,102.35 L54.52,85.53 Q61.18,83.33 67.70,82.18 Q74.22,81.01 80.47,81.01 Q94.23,81.01 101.84,87.07 Q109.46,93.11 109.46,103.95 Q109.46,110.20 106.23,115.62 Q102.99,121.02 92.64,130.11 L76.27,144.47 Z M194.00,103.85 L171.72,126.11 L194.00,148.27 L185.38,156.88 L163.11,134.72 L140.85,156.88 L132.23,148.27 L154.49,126.11 L132.23,103.85 L140.85,95.23 L163.11,117.49 L185.38,95.23 L194.00,103.85 Z" fill="#f5b13a"/>
</svg>