<svg viewBox="0 0 240 240" xmlns="http://www.w3.org/2000/svg">
<path d="M232.00,120.00 L176.00,216.99 L64.00,216.99 L8.00,120.00 L64.00,23.01 L176.00,23.01 Z" fill="none" stroke="#a574ff" stroke-width="16" stroke-linejoin="round" opacity="0.28"/>
<path d="M232.00,120.00 L176.00,216.99 L64.00,216.99 L8.00,120.00 L64.00,23.01 L176.00,23.01 Z" fill="#161B22" stroke="#a574ff" stroke-width="5" stroke-linejoin="round"/>
<path d="M62.81,42.50 L69.48,42.50 L74.15,62.12 L78.77,42.50 L85.48,42.50 L90.11,62.12 L94.78,42.50 L101.39,42.50 L95.03,69.50 L87.00,69.50 L82.10,48.98 L77.26,69.50 L69.23,69.50 L62.81,42.50 Z M120.67,64.58 L109.79,64.58 L108.07,69.50 L101.07,69.50 L111.07,42.50 L119.37,42.50 L129.37,69.50 L122.37,69.50 L120.67,64.58 Z M111.52,59.57 L118.92,59.57 L115.23,48.83 L111.52,59.57 Z M127.23,42.50 L134.23,42.50 L141.39,62.43 L148.53,42.50 L155.53,42.50 L145.53,69.50 L137.23,69.50 L127.23,42.50 Z M159.11,42.50 L177.90,42.50 L177.90,47.77 L166.07,47.77 L166.07,52.79 L177.20,52.79 L177.20,58.05 L166.07,58.05 L166.07,64.24 L178.30,64.24 L178.30,69.50 L159.11,69.50 L159.11,42.50 Z" fill="#a574ff"/>
<path d="M79.22,171.88 L79.22,177.35 Q77.10,176.40 75.07,175.92 Q73.05,175.43 71.25,175.43 Q68.87,175.43 67.72,176.09 Q66.58,176.74 66.58,178.12 Q66.58,179.17 67.35,179.75 Q68.12,180.32 70.14,180.74 L72.98,181.31 Q77.28,182.18 79.10,183.94 Q80.92,185.70 80.92,188.96 Q80.92,193.22 78.39,195.31 Q75.85,197.40 70.64,197.40 Q68.19,197.40 65.72,196.93 Q63.24,196.46 60.77,195.54 L60.77,189.93 Q63.24,191.24 65.55,191.91 Q67.86,192.57 70.01,192.57 Q72.19,192.57 73.34,191.85 Q74.50,191.12 74.50,189.76 Q74.50,188.56 73.71,187.90 Q72.93,187.24 70.58,186.72 L68.00,186.15 Q64.12,185.32 62.33,183.50 Q60.54,181.69 60.54,178.61 Q60.54,174.75 63.03,172.68 Q65.52,170.60 70.19,170.60 Q72.32,170.60 74.57,170.92 Q76.82,171.24 79.22,171.88 Z M83.68,171.07 L107.48,171.07 L107.48,176.10 L98.92,176.10 L98.92,196.89 L92.26,196.89 L92.26,176.10 L83.68,176.10 L83.68,171.07 Z M123.85,192.19 L113.44,192.19 L111.80,196.89 L105.10,196.89 L114.67,171.07 L122.61,171.07 L132.17,196.89 L125.48,196.89 L123.85,192.19 Z M115.10,187.40 L122.18,187.40 L118.65,177.12 L115.10,187.40 Z M145.06,182.52 Q147.15,182.52 148.06,181.74 Q148.97,180.96 148.97,179.18 Q148.97,177.42 148.06,176.66 Q147.15,175.89 145.06,175.89 L142.26,175.89 L142.26,182.52 L145.06,182.52 Z M142.26,187.12 L142.26,196.89 L135.60,196.89 L135.60,171.07 L145.77,171.07 Q150.87,171.07 153.25,172.78 Q155.63,174.49 155.63,178.20 Q155.63,180.75 154.39,182.40 Q153.15,184.04 150.66,184.82 Q152.03,185.13 153.11,186.23 Q154.19,187.33 155.30,189.56 L158.91,196.89 L151.82,196.89 L148.67,190.48 Q147.72,188.54 146.74,187.83 Q145.77,187.12 144.14,187.12 L142.26,187.12 Z M158.20,171.07 L182.00,171.07 L182.00,176.10 L173.44,176.10 L173.44,196.89 L166.78,196.89 L166.78,176.10 L158.20,176.10 L158.20,171.07 Z" fill="#a574ff"/>

</svg>